<?xml version="1.0" standalone="no"?>
<!DOCTYPE svg PUBLIC "-//W3C//DTD SVG 20010904//EN"
 "http://www.w3.org/TR/2001/REC-SVG-20010904/DTD/svg10.dtd">
<svg version="1.0" xmlns="http://www.w3.org/2000/svg"
 width="754.000000pt" height="754.000000pt" viewBox="0 0 754.000000 754.000000"
 preserveAspectRatio="xMidYMid meet">
<metadata>
Created by potrace 1.11, written by Peter Selinger 2001-2013
</metadata>
<g transform="translate(0.000000,754.000000) scale(0.100000,-0.100000)"
fill="#000000" stroke="none">
<path d="M3627 6614 c-1 -1 -110 -5 -242 -9 -409 -11 -496 -14 -655 -20 -317
-11 -418 -15 -515 -20 -55 -3 -152 -8 -215 -10 -63 -3 -155 -8 -205 -10 -49
-3 -135 -7 -190 -10 -167 -8 -227 -16 -259 -32 -17 -9 -74 -57 -126 -109 -52
-51 -123 -119 -156 -151 -34 -32 -167 -160 -295 -284 -129 -125 -265 -257
-304 -294 -38 -37 -159 -153 -267 -258 l-197 -190 52 -61 c28 -34 59 -68 67
-76 8 -8 42 -46 75 -85 33 -38 62 -72 65 -75 3 -3 32 -36 65 -75 33 -38 67
-77 75 -85 8 -8 44 -49 80 -90 100 -115 113 -131 170 -195 29 -33 65 -74 79
-90 53 -62 166 -190 171 -195 3 -3 32 -36 65 -75 33 -38 67 -76 75 -85 8 -9
26 -30 40 -46 35 -41 386 -442 419 -479 15 -16 80 -91 145 -165 114 -130 230
-262 251 -284 6 -6 35 -40 65 -76 30 -36 62 -72 70 -80 8 -8 40 -44 70 -80 30
-36 57 -67 60 -70 3 -3 39 -43 80 -90 41 -47 77 -87 80 -90 3 -3 113 -129 245
-280 132 -151 256 -293 275 -314 19 -21 40 -44 45 -50 6 -6 53 -61 105 -121
52 -61 103 -119 115 -130 11 -11 30 -32 41 -47 20 -25 125 -145 164 -188 8 -8
40 -45 70 -80 30 -36 62 -72 70 -80 8 -8 40 -44 70 -80 30 -36 74 -85 96 -110
23 -25 66 -73 95 -107 43 -53 55 -61 67 -51 8 7 137 152 286 323 149 170 276
315 282 320 6 6 53 59 105 120 52 60 101 116 109 125 8 9 26 30 40 46 14 16
74 85 135 154 60 69 121 138 135 154 14 17 48 55 75 86 28 31 64 72 80 91 17
19 62 70 100 114 39 44 82 93 96 110 14 16 48 55 75 86 27 30 77 86 110 125
86 97 427 487 488 558 28 32 58 66 67 75 8 9 44 50 80 91 35 41 69 79 75 85 6
5 37 41 70 80 32 38 78 90 100 115 23 25 55 61 70 80 16 19 31 37 34 40 3 3
37 41 75 85 39 44 84 95 101 115 17 19 118 134 224 255 106 121 204 234 219
250 14 17 89 102 166 190 77 88 142 162 145 165 3 3 32 36 65 74 33 39 79 90
102 115 24 25 43 50 43 55 0 5 -26 34 -58 65 -33 31 -162 156 -288 277 -126
122 -263 254 -304 294 -41 40 -176 170 -300 290 -124 120 -257 249 -295 285
-39 37 -85 74 -104 82 -41 17 -68 20 -436 39 -44 2 -123 6 -175 9 -126 6 -341
16 -459 20 -225 8 -465 16 -581 20 -338 13 -897 24 -903 19z"/>
</g>
</svg>
